<svg width="146" height="56" viewBox="0 0 146 56" fill="none" xmlns="http://www.w3.org/2000/svg">
<g clip-path="url(#clip0_286_284)">
<path d="M43.3677 6.69814C44.2511 7.47362 45.0421 8.28378 45.7872 9.19149C45.8614 9.27876 45.9356 9.36603 46.012 9.45595C47.3469 11.0273 48.4253 12.6321 49.3617 14.4681C49.4158 14.5715 49.47 14.675 49.5258 14.7816C50.4625 16.5846 51.0649 18.4624 51.5745 20.4255C51.6206 20.5956 51.6206 20.5956 51.6677 20.769C53.2915 26.9721 51.7753 34.179 48.7234 39.6808C45.1844 45.6768 39.1716 50.1634 32.4791 51.979C26.6317 53.4697 20.2021 52.6748 14.8085 50.0426C14.6986 49.9892 14.5886 49.9359 14.4753 49.8809C12.9289 49.1202 11.5525 48.2414 10.2128 47.1489C10.071 47.0344 10.071 47.0344 9.92629 46.9176C4.18012 42.2501 0.96127 35.9548 0.170219 28.5957C0.123398 27.7865 0.113204 26.9807 0.117027 26.1702C0.117987 25.9545 0.118947 25.7389 0.119936 25.5167C0.191339 19.9738 2.19669 14.3006 5.78724 10.0426C5.94128 9.85505 6.09531 9.66755 6.24934 9.48005C10.6132 4.22255 16.6849 1.02091 23.4688 0.224067C30.8429 -0.416453 37.7496 1.95466 43.3677 6.69814Z" fill="#F9F7F3"/>
<path d="M43.3677 6.69814C44.2511 7.47362 45.0421 8.28378 45.7872 9.19149C45.8614 9.27876 45.9356 9.36603 46.012 9.45595C47.3469 11.0273 48.4253 12.6321 49.3617 14.4681C49.4158 14.5715 49.47 14.675 49.5258 14.7816C50.4625 16.5846 51.0649 18.4624 51.5745 20.4255C51.6206 20.5956 51.6206 20.5956 51.6677 20.769C53.2915 26.9721 51.7753 34.179 48.7234 39.6808C45.1844 45.6768 39.1716 50.1634 32.4791 51.979C26.6317 53.4697 20.2021 52.6748 14.8085 50.0426C14.6986 49.9892 14.5886 49.9359 14.4753 49.8809C12.9289 49.1202 11.5525 48.2414 10.2128 47.1489C10.071 47.0344 10.071 47.0344 9.92629 46.9176C4.18012 42.2501 0.96127 35.9548 0.170219 28.5957C0.123398 27.7865 0.113204 26.9807 0.117027 26.1702C0.117987 25.9545 0.118947 25.7389 0.119936 25.5167C0.191339 19.9738 2.19669 14.3006 5.78724 10.0426C5.94128 9.85505 6.09531 9.66755 6.24934 9.48005C10.6132 4.22255 16.6849 1.02091 23.4688 0.224067C30.8429 -0.416453 37.7496 1.95466 43.3677 6.69814ZM11.7447 8.68085C11.595 8.80679 11.4454 8.93274 11.2912 9.0625C6.93456 12.8527 4.41153 17.9865 3.57447 23.6596C3.20549 30.6251 4.88552 36.7649 9.55985 42.0326C11.0641 43.6775 12.7356 44.9719 14.6383 46.1277C14.7389 46.1893 14.8396 46.251 14.9432 46.3145C17.7933 48.0294 21.2932 49.2122 24.6389 49.1959C24.8064 49.1952 24.974 49.1946 25.1466 49.1939C25.2738 49.1931 25.4009 49.1923 25.5319 49.1915C25.6976 43.4265 25.7392 37.6628 25.7428 31.8958C25.7436 30.6249 25.7466 29.3539 25.7515 28.083C25.7552 27.0825 25.7569 26.082 25.7571 25.0815C25.7573 24.4908 25.7582 23.9001 25.7613 23.3094C25.7642 22.6571 25.7639 22.0049 25.7628 21.3526C25.7652 21.0671 25.7652 21.0671 25.7676 20.7758C25.7596 19.2816 25.5325 17.9278 24.6809 16.6702C23.6775 15.0554 23.4191 13.4581 23.6596 11.5745C24.0692 9.92689 24.9314 7.95067 26.383 6.97872C27.9732 9.36742 28.9702 11.1785 28.766 14.1277C28.5408 15.2496 28.1216 16.1269 27.4719 17.0611C26.6634 18.4386 26.7342 19.7381 26.7584 21.2884C26.7587 21.5939 26.7585 21.8994 26.7578 22.2049C26.7575 23.0285 26.7645 23.8518 26.7728 24.6754C26.7803 25.5381 26.781 26.4009 26.7824 27.2637C26.7861 28.8949 26.7958 30.5261 26.8078 32.1572C26.8212 34.0154 26.8277 35.8735 26.8337 37.7317C26.8461 41.5517 26.867 45.3716 26.8936 49.1915C27.2716 49.1956 27.6497 49.1985 28.0277 49.2009C28.2382 49.2026 28.4487 49.2044 28.6656 49.2062C29.4926 49.1863 30.2453 49.0389 31.0426 48.8298C31.1947 48.7913 31.3468 48.7529 31.5035 48.7133C37.4265 47.1665 42.478 43.3951 45.6473 38.1354C48.6079 33.0595 49.6775 26.5613 48.2148 20.8225C48.145 20.5762 48.0734 20.3304 48 20.0851C47.9626 19.9592 47.9252 19.8334 47.8867 19.7037C46.0969 13.8732 42.0803 8.9486 36.7021 6.07447C28.7011 1.93909 18.6558 2.79221 11.7447 8.68085Z" fill="#0B642E"/>
<path d="M90.4362 1.54255C91.567 2.38566 92.3083 3.61171 92.766 4.93617C92.766 5.10468 92.766 5.27319 92.766 5.44681C91.6331 5.66491 90.51 5.8445 89.3617 5.95745C89.2875 5.8405 89.2134 5.72355 89.137 5.60306C88.3889 4.47119 87.8159 3.87231 86.4681 3.57447C85.0895 3.41368 84.0282 3.77321 82.9362 4.61702C81.6072 6.31513 81.4635 7.94022 81.7021 10.0426C81.8418 10.6823 82.0376 11.1899 82.383 11.7447C82.4532 11.8575 82.5234 11.9702 82.5957 12.0864C83.2418 12.9638 84.0597 13.3644 85.1064 13.617C86.2452 13.7547 87.1735 13.6845 88.1702 13.1064C89.0305 12.383 89.4315 11.6356 89.7021 10.5532C88.4102 10.5532 87.1183 10.5532 85.7872 10.5532C85.7872 9.71064 85.7872 8.86808 85.7872 8C88.2587 8 90.7302 8 93.2766 8C93.2766 10.8308 93.1338 12.9823 91.1915 15.117C89.7918 16.4271 87.9612 16.9194 86.0851 16.9043C85.9592 16.9033 85.8334 16.9023 85.7037 16.9013C83.5927 16.8551 81.6036 16.2273 80.0319 14.766C78.089 12.6506 77.6433 10.1392 77.7575 7.36228C77.9183 5.28947 78.9927 3.48864 80.4575 2.06383C83.1949 -0.27539 87.4531 -0.312405 90.4362 1.54255Z" fill="#0A622C"/>
<path d="M108.936 40.1702C117.097 40.1702 117.097 40.1702 118.638 41.5319C119.609 42.6726 120.085 43.8768 120.042 45.3803C119.901 46.7454 119.418 47.8563 118.468 48.8511C117.766 49.3617 117.766 49.3617 117.277 49.3617C118.184 51.1082 119.102 52.8427 120.102 54.5379C120.34 54.9787 120.34 54.9787 120.34 55.3191C119.434 55.3976 118.532 55.442 117.622 55.4189C117.473 55.4155 117.324 55.412 117.171 55.4085C116.652 55.2939 116.472 55.0947 116.149 54.6809C116.007 54.3291 115.874 53.9737 115.745 53.617C115.469 53.0076 115.167 52.414 114.862 51.8191C114.792 51.6651 114.722 51.511 114.65 51.3522C114.412 50.8451 114.412 50.8451 113.872 50.2128C113.254 50.1566 112.637 50.1004 112 50.0426C112 51.7838 112 53.5251 112 55.3191C110.989 55.3191 109.978 55.3191 108.936 55.3191C108.936 50.32 108.936 45.3208 108.936 40.1702Z" fill="#09632D"/>
<path d="M133.447 20.766C141.538 20.766 141.538 20.766 143.002 21.9628C144.001 23.0188 144.403 24.2006 144.447 25.6383C144.387 26.9924 144.115 28.0465 143.245 29.0957C142.174 29.9574 142.174 29.9574 141.617 29.9574C141.737 30.1737 141.737 30.1737 141.859 30.3944C142.157 30.9329 142.455 31.4716 142.753 32.0103C142.881 32.2428 143.01 32.4752 143.138 32.7076C143.324 33.043 143.509 33.3785 143.695 33.7141C143.752 33.8168 143.809 33.9195 143.867 34.0253C144.211 34.6479 144.537 35.2769 144.851 35.9149C143.945 35.9934 143.043 36.0378 142.133 36.0146C141.984 36.0112 141.835 36.0078 141.681 36.0042C141.162 35.8897 140.983 35.6905 140.66 35.2766C140.518 34.9247 140.385 34.5693 140.255 34.2128C139.976 33.6035 139.67 33.0099 139.362 32.4149C139.29 32.2608 139.219 32.1067 139.146 31.948C139.072 31.8034 138.999 31.6589 138.923 31.51C138.86 31.3791 138.797 31.2482 138.732 31.1133C138.245 30.6286 138.245 30.6286 136.681 30.6383C136.681 32.3796 136.681 34.1208 136.681 35.9149C135.614 35.9149 134.546 35.9149 133.447 35.9149C133.447 30.9157 133.447 25.9166 133.447 20.766Z" fill="#08612B"/>
<path d="M90.7234 20.766C91.7345 20.766 92.7455 20.766 93.7872 20.766C94.4431 21.431 94.7336 21.8412 95.1489 22.6383C95.4034 23.0337 95.6605 23.4248 95.9242 23.8138C96.0759 24.0395 96.2275 24.2651 96.3792 24.4907C96.457 24.6062 96.5348 24.7216 96.615 24.8406C96.9992 25.4117 97.3805 25.9849 97.762 26.5578C97.8973 26.7609 98.0326 26.9639 98.168 27.1668C98.8638 28.2105 99.5595 29.2542 100.255 30.2979C100.311 27.1523 100.368 24.0068 100.426 20.766C101.437 20.766 102.448 20.766 103.489 20.766C103.489 25.7651 103.489 30.7643 103.489 35.9149C100.255 35.9149 100.255 35.9149 99.5931 35.4109C99.3828 35.0584 99.3828 35.0584 99.1915 34.6596C99.0223 34.3673 98.852 34.0757 98.6809 33.7846C98.5856 33.6153 98.4904 33.446 98.3923 33.2716C97.7371 32.1388 96.9686 31.0727 96.2295 29.9939C95.9589 29.5979 95.6901 29.2007 95.422 28.8029C95.338 28.6782 95.2539 28.5535 95.1672 28.425C95.0072 28.1876 94.8472 27.9501 94.6873 27.7126C94.3532 27.1935 94.3532 27.1935 93.9574 26.7234C93.9013 29.7566 93.8451 32.7898 93.7872 35.9149C92.7762 35.9149 91.7651 35.9149 90.7234 35.9149C90.7234 30.9157 90.7234 25.9166 90.7234 20.766Z" fill="#09612B"/>
<path d="M60.2553 40.1702C63.3192 40.1702 63.3192 40.1702 64.0319 40.865C64.1867 41.1387 64.3406 41.4131 64.4861 41.6918C64.811 42.277 65.193 42.8235 65.5667 43.3783C65.878 43.8405 66.1851 44.3051 66.4907 44.7711C67.532 46.3585 68.5747 47.9451 69.617 49.5319C69.6732 46.4426 69.7294 43.3532 69.7872 40.1702C70.7983 40.1702 71.8094 40.1702 72.8511 40.1702C72.8511 45.1694 72.8511 50.1685 72.8511 55.3191C71.84 55.3191 70.8289 55.3191 69.7872 55.3191C68.6817 54.1853 68.6817 54.1853 68.3848 53.6496C68.3184 53.5332 68.252 53.4167 68.1835 53.2967C68.1159 53.1777 68.0484 53.0587 67.9787 52.9362C67.8313 52.6958 67.6827 52.4561 67.5331 52.217C67.2313 51.7323 66.9352 51.2447 66.6432 50.7539C66.1322 49.9008 65.581 49.0779 65.0235 48.2547C64.5072 47.4923 63.999 46.7243 63.4894 45.9574C63.4894 49.0468 63.4894 52.1362 63.4894 55.3191C62.4221 55.3191 61.3549 55.3191 60.2553 55.3191C60.2553 50.32 60.2553 45.3208 60.2553 40.1702Z" fill="#0A632D"/>
<path d="M95.6596 0.680851C96.783 0.680851 97.9064 0.680851 99.0638 0.680851C99.0638 2.75915 99.0638 4.83745 99.0638 6.97872C101.142 6.97872 103.22 6.97872 105.362 6.97872C105.362 4.90043 105.362 2.82213 105.362 0.680851C106.485 0.680851 107.609 0.680851 108.766 0.680851C108.766 5.90468 108.766 11.1285 108.766 16.5106C107.643 16.5106 106.519 16.5106 105.362 16.5106C105.362 14.3762 105.362 12.2417 105.362 10.0426C103.283 10.0426 101.205 10.0426 99.0638 10.0426C99.0638 12.177 99.0638 14.3115 99.0638 16.5106C97.9404 16.5106 96.817 16.5106 95.6596 16.5106C95.6596 11.2868 95.6596 6.06298 95.6596 0.680851Z" fill="#096730"/>
<path d="M116.805 21.3311C118.022 22.1652 118.831 23.2981 119.319 24.6809C119.319 24.8494 119.319 25.0179 119.319 25.1915C118.243 25.4962 117.2 25.6242 116.085 25.7021C116.023 25.5975 115.961 25.4928 115.898 25.385C115.812 25.2474 115.726 25.1098 115.638 24.9681C115.555 24.8318 115.472 24.6956 115.387 24.5552C114.849 23.9147 114.289 23.6938 113.469 23.5798C112.197 23.5685 111.243 23.5995 110.298 24.5106C109.129 25.803 109.014 27.2091 109.053 28.8883C109.126 30.285 109.597 31.5619 110.638 32.5106C111.668 33.1624 112.668 33.3532 113.872 33.1915C114.851 32.9026 115.343 32.5016 115.915 31.6596C116.083 31.2102 116.252 30.7609 116.426 30.2979C115.246 30.2979 114.066 30.2979 112.851 30.2979C112.851 29.4553 112.851 28.6128 112.851 27.7447C115.098 27.7447 117.345 27.7447 119.66 27.7447C119.66 31.7596 119.66 31.7596 118.979 33.0213C118.909 33.1567 118.838 33.292 118.766 33.4315C117.997 34.74 116.842 35.5997 115.404 36.0745C113.236 36.5666 110.847 36.4812 108.898 35.3557C107.297 34.2467 106.053 32.6652 105.61 30.7486C105.48 29.9944 105.493 29.2424 105.489 28.4787C105.486 28.3182 105.482 28.1577 105.479 27.9924C105.467 25.9069 106.178 23.9167 107.574 22.3404C109.997 20.0866 113.982 19.6573 116.805 21.3311Z" fill="#09622C"/>
<path d="M92.3191 40.9787C93.3344 41.8166 94.039 42.8455 94.4681 44.0851C94.4681 44.3098 94.4681 44.5345 94.4681 44.766C93.3736 44.9913 92.3524 45.1486 91.234 45.1064C91.1744 44.9589 91.1147 44.8115 91.0532 44.6596C90.6408 43.9413 90.2903 43.4292 89.5319 43.0638C88.2744 42.884 87.2361 42.9243 86.1277 43.5745C85.2365 44.3171 84.7865 45.2149 84.4255 46.2979C84.297 48.1992 84.4053 49.9381 85.6529 51.4561C86.4271 52.1898 87.3099 52.46 88.3617 52.5C89.4051 52.4499 90.1138 52.1841 90.8617 51.4362C91.3009 50.8497 91.3009 50.8497 91.5745 49.8723C90.4511 49.8162 89.3277 49.76 88.1702 49.7021C88.1702 48.8596 88.1702 48.017 88.1702 47.1489C90.417 47.1489 92.6638 47.1489 94.9787 47.1489C94.9787 49.8517 94.937 51.9964 93.0598 54.0372C91.3435 55.5595 89.19 55.6276 87.0157 55.5226C85.0822 55.3523 83.4025 54.1336 82.1775 52.6935C80.6872 50.5538 80.5177 47.8409 80.9614 45.3338C81.6101 43.2325 82.8153 41.5796 84.7553 40.5532C87.1818 39.4235 90.0652 39.4193 92.3191 40.9787Z" fill="#0A622C"/>
<path d="M132.943 40.1509C133.092 40.1518 133.241 40.1527 133.394 40.1536C133.555 40.1541 133.716 40.1547 133.881 40.1553C134.05 40.1567 134.219 40.1581 134.394 40.1596C134.563 40.1603 134.733 40.1611 134.908 40.1619C135.329 40.1639 135.749 40.1667 136.17 40.1702C136.206 40.2679 136.241 40.3655 136.278 40.4661C136.735 41.7187 137.192 42.9711 137.649 44.2234C137.722 44.4235 137.795 44.6236 137.87 44.8297C138.612 46.8629 139.355 48.8958 140.112 50.9235C140.19 51.134 140.19 51.134 140.27 51.3488C140.511 51.9926 140.752 52.636 140.994 53.2791C141.078 53.5039 141.163 53.7287 141.247 53.9535C141.319 54.1449 141.391 54.3364 141.465 54.5337C141.617 54.9787 141.617 54.9787 141.617 55.3192C140.437 55.3192 139.258 55.3192 138.043 55.3192C137.902 54.9049 137.762 54.4906 137.617 54.0638C137.573 53.9336 137.528 53.8034 137.482 53.6693C137.191 52.8038 137.191 52.8038 137.191 52.4255C135.282 52.4255 133.372 52.4255 131.404 52.4255C131.236 53.0434 131.067 53.6613 130.894 54.2979C130.781 54.6349 130.669 54.9719 130.553 55.3192C129.374 55.3192 128.194 55.3192 126.979 55.3192C127.553 53.4039 127.553 53.4039 127.817 52.6815C127.876 52.5186 127.936 52.3557 127.997 52.1878C128.06 52.017 128.122 51.8462 128.187 51.6702C128.287 51.3967 128.287 51.3967 128.388 51.1177C128.602 50.5321 128.817 49.9469 129.032 49.3617C129.105 49.1635 129.177 48.9652 129.252 48.761C130.078 46.5063 130.905 44.2524 131.766 42.0106C131.833 41.8354 131.9 41.6602 131.969 41.4797C132.475 40.1769 132.475 40.1769 132.943 40.1509Z" fill="#09632D"/>
<path d="M60.4255 20.766C61.4928 20.766 62.56 20.766 63.6596 20.766C63.6596 22.6757 63.6596 24.5855 63.6596 26.5532C65.6817 26.5532 67.7038 26.5532 69.7872 26.5532C69.7872 24.6434 69.7872 22.7336 69.7872 20.766C70.8545 20.766 71.9217 20.766 73.0213 20.766C73.0213 25.7651 73.0213 30.7643 73.0213 35.9149C71.954 35.9149 70.8868 35.9149 69.7872 35.9149C69.7872 33.8928 69.7872 31.8706 69.7872 29.7872C67.7651 29.7872 65.743 29.7872 63.6596 29.7872C63.6596 31.8094 63.6596 33.8315 63.6596 35.9149C62.5923 35.9149 61.5251 35.9149 60.4255 35.9149C60.4255 30.9157 60.4255 25.9166 60.4255 20.766Z" fill="#09612B"/>
<path d="M75.7447 20.766C76.8119 20.766 77.8791 20.766 78.9787 20.766C78.9803 21.0785 78.9819 21.3911 78.9835 21.7131C78.9896 22.7499 78.9988 23.7866 79.01 24.8233C79.0167 25.4514 79.0222 26.0795 79.0248 26.7076C79.0274 27.3147 79.0333 27.9216 79.0414 28.5286C79.0451 28.871 79.0455 29.2135 79.0458 29.5559C79.0654 30.7857 79.1478 31.6432 79.8298 32.6809C80.6834 33.3471 81.686 33.3044 82.7234 33.1915C83.3848 33.0157 84.0324 32.7496 84.4255 32.1702C84.8665 31.015 84.8254 29.8522 84.8364 28.6283C84.8396 28.4011 84.843 28.1738 84.8464 27.9465C84.8551 27.3519 84.8619 26.7573 84.8682 26.1627C84.8751 25.5545 84.8838 24.9463 84.8923 24.3381C84.9087 23.1474 84.9229 21.9567 84.9362 20.766C86.0034 20.766 87.0706 20.766 88.1702 20.766C88.1857 22.1732 88.1981 23.5804 88.2055 24.9878C88.209 25.6414 88.2138 26.2951 88.2216 26.9487C88.229 27.5811 88.2331 28.2135 88.2348 28.8459C88.2361 29.0856 88.2385 29.3252 88.2422 29.5649C88.2687 31.3469 88.0932 32.9133 87.1277 34.4468C85.1344 36.2667 82.988 36.4011 80.4116 36.2878C78.9242 36.1704 77.7343 35.5051 76.766 34.383C75.9729 33.2299 75.7227 32.2692 75.7254 30.8721C75.7253 30.7624 75.7253 30.6527 75.7253 30.5397C75.7254 30.1796 75.7267 29.8195 75.7281 29.4594C75.7284 29.2088 75.7286 28.9581 75.7288 28.7075C75.7294 28.0496 75.7311 27.3918 75.733 26.7339C75.7347 26.0618 75.7355 25.3898 75.7364 24.7178C75.7382 23.4005 75.7412 22.0832 75.7447 20.766Z" fill="#08602A"/>
<path d="M97.1915 40.1702C100.281 40.1702 103.37 40.1702 106.553 40.1702C106.553 41.1251 106.553 42.08 106.553 43.0638C104.531 43.0638 102.509 43.0638 100.426 43.0638C100.426 44.1311 100.426 45.1983 100.426 46.2979C102.279 46.2979 104.133 46.2979 106.043 46.2979C106.043 47.2528 106.043 48.2077 106.043 49.1915C104.189 49.1915 102.335 49.1915 100.426 49.1915C100.426 50.2587 100.426 51.326 100.426 52.4255C102.448 52.4255 104.47 52.4255 106.553 52.4255C106.553 53.3804 106.553 54.3353 106.553 55.3191C103.464 55.3191 100.374 55.3191 97.1915 55.3191C97.1915 50.32 97.1915 45.3208 97.1915 40.1702Z" fill="#0A6831"/>
<path d="M121.872 20.766C124.906 20.766 127.939 20.766 131.064 20.766C131.064 21.7209 131.064 22.6757 131.064 23.6596C129.098 23.6596 127.132 23.6596 125.106 23.6596C125.106 24.783 125.106 25.9064 125.106 27.0638C126.96 27.0638 128.814 27.0638 130.723 27.0638C130.723 27.9626 130.723 28.8613 130.723 29.7872C128.87 29.7872 127.016 29.7872 125.106 29.7872C125.106 30.9106 125.106 32.034 125.106 33.1915C127.072 33.1915 129.038 33.1915 131.064 33.1915C131.064 34.0902 131.064 34.9889 131.064 35.9149C128.031 35.9149 124.997 35.9149 121.872 35.9149C121.872 30.9157 121.872 25.9166 121.872 20.766Z" fill="#08612B"/>
<path d="M60.2553 0.680851C63.457 0.680851 66.6587 0.680851 69.9575 0.680851C69.9575 1.69191 69.9575 2.70298 69.9575 3.74468C67.8792 3.74468 65.8009 3.74468 63.6596 3.74468C63.6596 4.98043 63.6596 6.21617 63.6596 7.48936C65.5132 7.48936 67.3668 7.48936 69.2766 7.48936C69.2766 8.44425 69.2766 9.39915 69.2766 10.383C67.423 10.383 65.5694 10.383 63.6596 10.383C63.6596 12.4051 63.6596 14.4272 63.6596 16.5106C62.5362 16.5106 61.4128 16.5106 60.2553 16.5106C60.2553 11.2868 60.2553 6.06298 60.2553 0.680851Z" fill="#09652F"/>
<path d="M110.809 0.680851C114.74 0.680851 118.672 0.680851 122.723 0.680851C122.723 1.69191 122.723 2.70298 122.723 3.74468C121.319 3.74468 119.915 3.74468 118.468 3.74468C118.468 7.95745 118.468 12.1702 118.468 16.5106C117.345 16.5106 116.221 16.5106 115.064 16.5106C115.064 12.2979 115.064 8.08511 115.064 3.74468C113.66 3.74468 112.255 3.74468 110.809 3.74468C110.809 2.73362 110.809 1.72255 110.809 0.680851Z" fill="#08602A"/>
<path d="M26.2128 6.80851C26.8644 7.41242 27.3342 8.02894 27.766 8.80851C27.8248 8.9145 27.8836 9.02049 27.9442 9.1297C28.93 10.9432 29.2476 12.6037 28.8245 14.6742C28.4822 15.7984 27.9457 16.7655 27.3172 17.7547C26.8602 18.5811 26.8713 19.3782 26.8667 20.3099C26.8659 20.4337 26.865 20.5574 26.8642 20.685C26.8615 21.0987 26.8601 21.5124 26.8587 21.9261C26.857 22.223 26.8553 22.52 26.8536 22.8169C26.849 23.6225 26.8454 24.4282 26.842 25.2338C26.8383 26.0759 26.8336 26.918 26.8291 27.7601C26.8206 29.3546 26.8129 30.949 26.8056 32.5435C26.7972 34.3588 26.7878 36.1741 26.7784 37.9894C26.759 41.7234 26.7408 45.4575 26.7234 49.1915C26.6672 49.1915 26.6111 49.1915 26.5532 49.1915C26.5525 49.0367 26.5518 48.8819 26.551 48.7224C26.5335 44.9594 26.515 41.1964 26.4954 37.4335C26.486 35.6137 26.4769 33.794 26.4686 31.9743C26.4613 30.3886 26.4534 28.8029 26.4448 27.2172C26.4403 26.3773 26.436 25.5373 26.4325 24.6973C26.4292 23.9073 26.4251 23.1173 26.4204 22.3272C26.4188 22.0368 26.4175 21.7463 26.4165 21.4558C26.415 21.0602 26.4126 20.6646 26.4099 20.269C26.4088 20.0473 26.4077 19.8256 26.4066 19.5972C26.4072 19.0586 26.4072 19.0586 26.2128 18.5532C26.1004 18.5532 25.9881 18.5532 25.8724 18.5532C25.8725 18.6934 25.8727 18.8335 25.8728 18.9779C25.8766 22.4009 25.8794 25.8239 25.8812 29.2468C25.882 30.9022 25.8832 32.5576 25.8852 34.2129C25.8869 35.6571 25.888 37.1012 25.8884 38.5454C25.8886 39.3088 25.8891 40.0723 25.8903 40.8357C25.8915 41.5569 25.8919 42.2781 25.8916 42.9993C25.8917 43.2615 25.892 43.5237 25.8926 43.7859C25.8971 45.65 25.8218 47.5014 25.7021 49.3617C25.646 49.3617 25.5898 49.3617 25.5319 49.3617C25.5324 49.208 25.5329 49.0543 25.5334 48.8959C25.5446 45.1524 25.5531 41.4089 25.5584 37.6654C25.561 35.8551 25.5646 34.0447 25.5704 32.2344C25.5755 30.6561 25.5788 29.0778 25.58 27.4995C25.5806 26.6642 25.5822 25.8289 25.5859 24.9935C25.5894 24.2064 25.5904 23.4193 25.5897 22.6322C25.5898 22.3442 25.5908 22.0561 25.5928 21.7681C25.6047 19.9373 25.5741 18.2405 24.5106 16.6702C23.5073 15.0554 23.2489 13.4581 23.4894 11.5745C23.9318 9.79486 24.8782 8.07298 26.2128 6.80851Z" fill="#085824"/>
<path d="M72.3404 0.680851C73.4638 0.680851 74.5872 0.680851 75.7447 0.680851C75.7447 5.90468 75.7447 11.1285 75.7447 16.5106C74.6213 16.5106 73.4979 16.5106 72.3404 16.5106C72.3404 11.2868 72.3404 6.06298 72.3404 0.680851Z" fill="#096831"/>
<path d="M122.213 40.1702C123.336 40.1702 124.46 40.1702 125.617 40.1702C125.617 45.1694 125.617 50.1685 125.617 55.3191C124.494 55.3191 123.37 55.3191 122.213 55.3191C122.213 50.32 122.213 45.3208 122.213 40.1702Z" fill="#0A6831"/>
<path d="M75.5745 40.1702C76.6417 40.1702 77.709 40.1702 78.8085 40.1702C78.8085 45.1694 78.8085 50.1685 78.8085 55.3191C77.7413 55.3191 76.6741 55.3191 75.5745 55.3191C75.5745 50.32 75.5745 45.3208 75.5745 40.1702Z" fill="#096831"/>
<path d="M35.234 25.0213C35.1409 27.3446 34.5426 29.6738 32.8218 31.3358C32.0438 31.9675 31.2187 32.4587 30.2979 32.8511C30.1364 32.9213 29.9749 32.9915 29.8085 33.0638C29.0614 33.2431 28.3389 33.2187 27.5745 33.1915C27.456 30.9374 27.823 29.1726 29.2766 27.4043C30.9523 25.5944 32.8236 24.9731 35.234 25.0213Z" fill="#0A632D"/>
<path d="M17.3617 25.0213C19.1738 24.8792 20.8407 25.4841 22.2733 26.5811C23.5032 27.6341 24.5889 29.1774 24.8511 30.8085C24.8627 31.2197 24.8655 31.6312 24.8617 32.0425C24.8602 32.2576 24.8586 32.4726 24.8571 32.6941C24.8551 32.8583 24.8531 33.0224 24.8511 33.1915C22.9333 33.3227 21.5815 32.8735 20.1017 31.6443C18.5627 30.2428 17.5901 28.6482 17.3617 26.5532C17.3395 26.0385 17.3451 25.5368 17.3617 25.0213Z" fill="#09632D"/>
<path d="M35.234 16.3404C34.9519 19.1244 34.2659 21.3316 32.0492 23.1961C30.6826 24.2246 29.2657 24.5352 27.5745 24.5106C27.4559 22.2554 27.8238 20.4942 29.2766 18.7234C30.8531 17.0717 32.9444 16.2108 35.234 16.3404Z" fill="#09632D"/>
<path d="M17.3617 16.3404C19.3077 16.2107 21.0854 16.9914 22.6383 18.1197C23.6699 19.0316 24.6409 20.7469 24.851 22.1277C24.8627 22.5389 24.8655 22.9504 24.8617 23.3617C24.8602 23.5767 24.8586 23.7918 24.857 24.0133C24.8551 24.1774 24.8531 24.3415 24.851 24.5106C22.9742 24.6337 21.3619 24.0038 19.9149 22.8085C18.3551 21.3126 17.4751 19.5836 17.3304 17.4009C17.3299 17.0473 17.344 16.6936 17.3617 16.3404Z" fill="#0A632D"/>
<path d="M17.3617 33.8723C19.3066 33.7205 20.9658 34.3396 22.4681 35.5745C23.6498 36.6685 24.5632 38.0491 24.8511 39.6596C24.8626 40.0424 24.8655 40.4255 24.8617 40.8085C24.8602 41.0077 24.8586 41.207 24.8571 41.4122C24.8551 41.5641 24.8531 41.7159 24.8511 41.8723C22.8077 41.9712 21.3042 41.3854 19.7547 40.0572C18.4319 38.8059 17.589 37.2226 17.3617 35.4043C17.3496 34.8932 17.3517 34.3834 17.3617 33.8723Z" fill="#09622C"/>
<path d="M34.3404 33.8617C34.4764 33.8632 34.6125 33.8648 34.7526 33.8664C34.8553 33.8683 34.958 33.8703 35.0638 33.8723C34.9901 36.4312 34.3642 38.4148 32.4787 40.2128C31.2694 41.2379 29.8037 41.9101 28.2021 41.883C27.8914 41.8777 27.8914 41.8777 27.5744 41.8723C27.4257 39.6377 27.8547 37.9756 29.3105 36.2487C30.6104 34.8331 32.3699 33.8327 34.3404 33.8617Z" fill="#09652E"/>
<path d="M112 42.8936C115.049 42.8936 115.049 42.8936 116.027 43.6117C116.504 44.09 116.656 44.5395 116.692 45.1915C116.644 45.9478 116.438 46.4142 115.915 46.9787C115.064 47.3567 114.293 47.3603 113.383 47.3404C112.927 47.3334 112.47 47.3264 112 47.3191C112 45.8587 112 44.3983 112 42.8936Z" fill="#FAF8F4"/>
<path d="M136.681 23.4894C139.531 23.4894 139.531 23.4894 140.426 24C140.941 24.5411 141.144 24.9672 141.181 25.7021C141.138 26.3759 141.006 26.853 140.596 27.4043C139.369 28.1121 138.057 27.9518 136.681 27.9149C136.681 26.4545 136.681 24.994 136.681 23.4894Z" fill="#F8F7F2"/>
<path d="M95.6596 0.680851C96.783 0.680851 97.9064 0.680851 99.0638 0.680851C99.0638 2.75915 99.0638 4.83745 99.0638 6.97872C101.142 6.97872 103.22 6.97872 105.362 6.97872C105.362 4.90043 105.362 2.82213 105.362 0.680851C106.485 0.680851 107.609 0.680851 108.766 0.680851C108.766 5.90468 108.766 11.1285 108.766 16.5106C107.643 16.5106 106.519 16.5106 105.362 16.5106C105.362 16.4545 105.362 16.3983 105.362 16.3404C106.429 16.3404 107.496 16.3404 108.596 16.3404C108.596 11.2851 108.596 6.22979 108.596 1.02128C107.641 1.02128 106.686 1.02128 105.702 1.02128C105.704 1.44935 105.706 1.87743 105.708 2.31848C105.709 2.7314 105.71 3.14431 105.711 3.55722C105.712 3.84501 105.714 4.1328 105.715 4.42059C105.717 4.83336 105.718 5.24613 105.719 5.65891C105.72 5.78834 105.721 5.91778 105.721 6.05113C105.721 6.3604 105.713 6.66964 105.702 6.97872C105.384 7.29696 104.928 7.17087 104.505 7.17259C104.361 7.17224 104.217 7.1719 104.069 7.17154C103.922 7.17171 103.776 7.17187 103.625 7.17204C103.314 7.17215 103.003 7.17184 102.692 7.17113C102.215 7.17022 101.737 7.17112 101.26 7.17221C100.959 7.17209 100.658 7.17188 100.356 7.17154C100.213 7.17189 100.069 7.17223 99.9207 7.17259C98.9132 7.1685 98.9132 7.1685 98.7234 6.97872C98.7083 6.53726 98.7038 6.10036 98.7068 5.65891C98.707 5.52692 98.7073 5.39493 98.7075 5.25894C98.7085 4.83574 98.7106 4.41256 98.7128 3.98936C98.7136 3.70312 98.7144 3.41689 98.7151 3.13065C98.7168 2.42752 98.7202 1.72441 98.7234 1.02128C97.7685 1.02128 96.8136 1.02128 95.8298 1.02128C95.8298 6.0766 95.8298 11.1319 95.8298 16.3404C96.7847 16.3404 97.7396 16.3404 98.7234 16.3404C98.7214 15.8878 98.7195 15.4351 98.7174 14.9687C98.7161 14.5322 98.7151 14.0956 98.7141 13.659C98.7132 13.3547 98.712 13.0504 98.7106 12.7461C98.7085 12.3097 98.7075 11.8733 98.7068 11.4368C98.7059 11.3 98.705 11.1631 98.7041 11.022C98.7041 10.6955 98.7128 10.3689 98.7234 10.0426C98.8936 9.87234 98.8936 9.87234 99.5067 9.85302C99.7795 9.85304 100.052 9.85401 100.325 9.85572C100.468 9.85596 100.612 9.8562 100.759 9.85645C101.219 9.8574 101.679 9.85954 102.138 9.8617C102.449 9.86255 102.76 9.86333 103.071 9.86403C103.834 9.86591 104.598 9.86885 105.362 9.87234C105.362 9.92851 105.362 9.98468 105.362 10.0426C103.283 10.0426 101.205 10.0426 99.0638 10.0426C99.0638 12.177 99.0638 14.3115 99.0638 16.5106C97.9404 16.5106 96.817 16.5106 95.6596 16.5106C95.6596 11.2868 95.6596 6.06298 95.6596 0.680851Z" fill="#013609"/>
<path d="M97.1915 40.1702C100.281 40.1702 103.37 40.1702 106.553 40.1702C106.553 41.1251 106.553 42.08 106.553 43.0638C104.531 43.0638 102.509 43.0638 100.426 43.0638C100.426 43.0077 100.426 42.9515 100.426 42.8936C102.391 42.8936 104.357 42.8936 106.383 42.8936C106.383 42.0511 106.383 41.2085 106.383 40.3404C103.462 40.3404 100.541 40.3404 97.5319 40.3404C97.5319 45.1711 97.5319 50.0017 97.5319 54.9787C100.453 54.9787 103.374 54.9787 106.383 54.9787C106.383 54.1923 106.383 53.406 106.383 52.5957C104.361 52.5957 102.339 52.5957 100.255 52.5957C100.25 51.7163 100.25 51.7163 100.245 50.8191C100.243 50.6341 100.242 50.449 100.24 50.2584C100.24 50.1136 100.239 49.9689 100.239 49.8198C100.237 49.5965 100.237 49.5965 100.236 49.3687C100.255 49.0213 100.255 49.0213 100.426 48.8511C100.83 48.836 101.229 48.8314 101.634 48.8344C101.815 48.8348 101.815 48.8348 101.999 48.8352C102.386 48.8361 102.773 48.8383 103.16 48.8404C103.421 48.8413 103.683 48.8421 103.944 48.8428C104.587 48.8446 105.23 48.8476 105.872 48.8511C105.872 48.1208 105.872 47.3906 105.872 46.6383C104.075 46.6383 102.277 46.6383 100.426 46.6383C100.426 46.5821 100.426 46.526 100.426 46.4681C102.279 46.4681 104.133 46.4681 106.043 46.4681C106.043 47.3668 106.043 48.2655 106.043 49.1915C104.189 49.1915 102.335 49.1915 100.426 49.1915C100.426 50.2587 100.426 51.326 100.426 52.4255C102.448 52.4255 104.47 52.4255 106.553 52.4255C106.553 53.3804 106.553 54.3353 106.553 55.3191C103.464 55.3191 100.374 55.3191 97.1915 55.3191C97.1915 50.32 97.1915 45.3208 97.1915 40.1702Z" fill="#074413"/>
<path d="M60.2553 0.680851C63.457 0.680851 66.6587 0.680851 69.9575 0.680851C69.9575 1.69191 69.9575 2.70298 69.9575 3.74468C67.8792 3.74468 65.8009 3.74468 63.6596 3.74468C63.6596 3.68851 63.6596 3.63234 63.6596 3.57447C65.6255 3.57447 67.5915 3.57447 69.617 3.57447C69.617 2.73191 69.617 1.88936 69.617 1.02128C66.64 1.02128 63.663 1.02128 60.5958 1.02128C60.5958 6.0766 60.5958 11.1319 60.5958 16.3404C61.5506 16.3404 62.5055 16.3404 63.4894 16.3404C63.4894 14.3745 63.4894 12.4085 63.4894 10.383C63.5455 10.383 63.6017 10.383 63.6596 10.383C63.6596 12.4051 63.6596 14.4272 63.6596 16.5106C62.5362 16.5106 61.4128 16.5106 60.2553 16.5106C60.2553 11.2868 60.2553 6.06298 60.2553 0.680851Z" fill="#00410B"/>
<path d="M122.213 40.1702C123.336 40.1702 124.46 40.1702 125.617 40.1702C125.617 45.1694 125.617 50.1685 125.617 55.3191C124.494 55.3191 123.37 55.3191 122.213 55.3191C122.213 50.32 122.213 45.3208 122.213 40.1702ZM122.553 40.3404C122.553 45.1711 122.553 50.0017 122.553 54.9787C123.452 54.9787 124.351 54.9787 125.277 54.9787C125.277 50.1481 125.277 45.3174 125.277 40.3404C124.378 40.3404 123.479 40.3404 122.553 40.3404Z" fill="#245D30"/>
<path d="M134.128 43.9149C134.578 44.3654 134.673 44.7885 134.874 45.3936C134.911 45.5057 134.948 45.6177 134.987 45.7332C135.065 45.9699 135.143 46.2069 135.221 46.444C135.34 46.8075 135.461 47.1704 135.582 47.5332C136.17 49.3115 136.17 49.3115 136.17 49.7021C134.934 49.7021 133.699 49.7021 132.426 49.7021C132.627 48.7945 132.814 47.962 133.097 47.0898C133.157 46.9027 133.218 46.7157 133.28 46.5229C133.342 46.3328 133.404 46.1427 133.468 45.9468C133.532 45.7508 133.595 45.5547 133.66 45.3527C133.815 44.8732 133.971 44.394 134.128 43.9149Z" fill="#F6F6F1"/>
<path d="M72.3404 0.680851C73.4638 0.680851 74.5872 0.680851 75.7447 0.680851C75.7447 5.90468 75.7447 11.1285 75.7447 16.5106C74.6213 16.5106 73.4979 16.5106 72.3404 16.5106C72.3404 11.2868 72.3404 6.06298 72.3404 0.680851ZM72.5107 1.02128C72.5107 6.0766 72.5107 11.1319 72.5107 16.3404C73.4655 16.3404 74.4204 16.3404 75.4043 16.3404C75.4043 11.2851 75.4043 6.22979 75.4043 1.02128C74.4494 1.02128 73.4945 1.02128 72.5107 1.02128Z" fill="#023F0D"/>
<path d="M75.5745 40.1702C76.6417 40.1702 77.709 40.1702 78.8085 40.1702C78.8085 45.1694 78.8085 50.1685 78.8085 55.3191C77.7413 55.3191 76.6741 55.3191 75.5745 55.3191C75.5745 50.32 75.5745 45.3208 75.5745 40.1702ZM75.9149 40.3404C75.9149 45.1711 75.9149 50.0017 75.9149 54.9787C76.8136 54.9787 77.7124 54.9787 78.6383 54.9787C78.6383 50.1481 78.6383 45.3174 78.6383 40.3404C77.7396 40.3404 76.8409 40.3404 75.9149 40.3404Z" fill="#06420E"/>
<path d="M131.404 52.0851C132.222 52.0767 133.04 52.0705 133.858 52.0664C134.137 52.0647 134.415 52.0624 134.693 52.0594C135.093 52.0553 135.493 52.0534 135.892 52.0519C136.017 52.0501 136.142 52.0483 136.271 52.0465C136.578 52.0465 136.885 52.0643 137.191 52.0851C137.636 52.5296 137.714 52.9314 137.894 53.5319C137.954 53.7303 138.014 53.9286 138.076 54.133C138.213 54.6383 138.213 54.6383 138.213 54.9787C139.645 54.8945 139.645 54.8945 141.106 54.8085C141.022 54.303 141.022 54.303 140.936 53.7872C141.277 54.1277 141.277 54.1277 141.617 55.3191C140.437 55.3191 139.258 55.3191 138.043 55.3191C137.902 54.9049 137.762 54.4906 137.617 54.0638C137.573 53.9336 137.528 53.8034 137.482 53.6693C137.191 52.8038 137.191 52.8038 137.191 52.4255C135.282 52.4255 133.372 52.4255 131.404 52.4255C131.236 53.0434 131.067 53.6613 130.894 54.2979C130.781 54.6349 130.669 54.9719 130.553 55.3191C129.374 55.3191 128.194 55.3191 126.979 55.3191C127.489 53.617 127.489 53.617 127.83 53.2766C127.717 53.7821 127.605 54.2877 127.489 54.8085C128.444 54.8647 129.399 54.9208 130.383 54.9787C130.457 54.6908 130.53 54.403 130.606 54.1064C130.794 53.3756 131.061 52.7558 131.404 52.0851Z" fill="#044812"/>
<path d="M78.9787 40.3404C79.0349 40.3404 79.0911 40.3404 79.1489 40.3404C79.1489 45.3396 79.1489 50.3387 79.1489 55.4894C78.5872 55.6579 78.0255 55.8264 77.4468 56C77.4468 55.8877 77.4468 55.7753 77.4468 55.6596C77.2684 55.6625 77.2684 55.6625 77.0864 55.6656C76.9315 55.6671 76.7766 55.6686 76.617 55.6702C76.386 55.6732 76.386 55.6732 76.1503 55.6762C75.7447 55.6596 75.7447 55.6596 75.4042 55.4894C75.1271 54.5319 75.2917 53.5691 75.4042 52.5957C75.4604 52.5957 75.5166 52.5957 75.5745 52.5957C75.5745 53.4945 75.5745 54.3932 75.5745 55.3191C76.6979 55.3191 77.8213 55.3191 78.9787 55.3191C78.9787 50.3762 78.9787 45.4332 78.9787 40.3404Z" fill="#FEFEFD"/>
<path d="M98.0426 0.340424C99.307 0.316108 99.307 0.316108 99.9149 0.510637C99.9149 0.622977 99.9149 0.735318 99.9149 0.851062C99.7464 0.851062 99.5779 0.851062 99.4043 0.851062C99.4043 2.76085 99.4043 4.67064 99.4043 6.6383C100.921 6.6383 102.437 6.6383 104 6.6383C104 6.75064 104 6.86298 104 6.97872C102.371 6.97872 100.742 6.97872 99.0638 6.97872C99.0638 4.90042 99.0638 2.82213 99.0638 0.680849C98.6706 0.680849 98.2775 0.680849 97.8723 0.680849C97.9285 0.568509 97.9847 0.456169 98.0426 0.340424Z" fill="#FDFDFB"/>
<path d="M125.106 27.0638C126.96 27.0638 128.814 27.0638 130.723 27.0638C130.723 27.9626 130.723 28.8613 130.723 29.7872C128.87 29.7872 127.016 29.7872 125.106 29.7872C125.106 30.9106 125.106 32.034 125.106 33.1915C125.05 33.1915 124.994 33.1915 124.936 33.1915C124.931 32.5993 124.928 32.0071 124.926 31.4149C124.924 31.2458 124.923 31.0768 124.921 30.9026C124.921 30.7419 124.92 30.5811 124.92 30.4156C124.919 30.2667 124.918 30.1178 124.917 29.9645C124.936 29.617 124.936 29.617 125.106 29.4468C125.496 29.4318 125.887 29.4286 126.277 29.4302C126.453 29.4305 126.453 29.4305 126.631 29.4309C127.006 29.4319 127.381 29.434 127.755 29.4362C128.009 29.437 128.262 29.4378 128.516 29.4385C129.138 29.4404 129.761 29.4433 130.383 29.4468C130.383 28.7166 130.383 27.9864 130.383 27.234C128.642 27.234 126.9 27.234 125.106 27.234C125.106 27.1779 125.106 27.1217 125.106 27.0638Z" fill="#013F0C"/>
<path d="M133.277 26.0426C133.333 26.0426 133.389 26.0426 133.447 26.0426C133.447 29.3566 133.447 32.6706 133.447 36.0851C134.514 36.0851 135.581 36.0851 136.681 36.0851C136.681 36.1413 136.681 36.1974 136.681 36.2553C135.557 36.2553 134.434 36.2553 133.277 36.2553C133.071 35.8443 133.081 35.5753 133.074 35.116C133.071 34.9502 133.068 34.7843 133.066 34.6134C133.063 34.4338 133.061 34.2542 133.059 34.0691C133.055 33.8853 133.052 33.7015 133.049 33.5121C133.036 32.723 133.024 31.9339 133.012 31.1449C133.004 30.57 132.994 29.9951 132.984 29.4202C132.982 29.2406 132.979 29.061 132.977 28.8759C132.974 28.7101 132.971 28.5442 132.968 28.3733C132.966 28.227 132.964 28.0806 132.962 27.9297C132.958 27.5643 132.958 27.5643 132.766 27.234C132.878 27.234 132.991 27.234 133.106 27.234C133.103 27.069 133.099 26.904 133.096 26.734C133.106 26.2128 133.106 26.2128 133.277 26.0426Z" fill="#FDFDFB"/>
<path d="M63.6596 29.7872C65.6255 29.7872 67.5915 29.7872 69.617 29.7872C69.617 31.8655 69.617 33.9438 69.617 36.0851C69.5609 36.0851 69.5047 36.0851 69.4468 36.0851C69.4468 34.1191 69.4468 32.1532 69.4468 30.1277C67.6494 30.1277 65.8519 30.1277 64 30.1277C63.8877 30.3523 63.7753 30.577 63.6596 30.8085C63.6596 30.4715 63.6596 30.1345 63.6596 29.7872Z" fill="#FEFDFD"/>
<path d="M63.3192 45.7872C63.8923 46.3604 64.2857 46.8608 64.7234 47.5319C64.8436 47.7153 64.9639 47.8988 65.0878 48.0878C65.1782 48.2273 65.2686 48.3669 65.3617 48.5106C64.8511 48.5106 64.8511 48.5106 64.5106 48.3404C64.3983 48.4528 64.286 48.5651 64.1702 48.6808C64.0017 48.5123 63.8332 48.3438 63.6596 48.1702C63.6034 49.6868 63.5472 51.2034 63.4894 52.766C63.4332 52.766 63.377 52.766 63.3192 52.766C63.3192 50.463 63.3192 48.16 63.3192 45.7872Z" fill="#D5E1D3"/>
<path d="M63.149 45.7872C63.2051 45.7872 63.2613 45.7872 63.3192 45.7872C63.3438 46.7343 63.368 47.6815 63.3919 48.6286C63.4 48.9496 63.4083 49.2707 63.4167 49.5917C63.4664 51.5016 63.4991 53.4086 63.4894 55.3191C62.5345 55.3191 61.5796 55.3191 60.5958 55.3191C60.5958 55.2068 60.5958 55.0945 60.5958 54.9787C61.4383 54.9787 62.2809 54.9787 63.149 54.9787C63.149 51.9455 63.149 48.9123 63.149 45.7872Z" fill="#0A4614"/>
<path d="M111.83 42.8936C111.886 42.8936 111.942 42.8936 112 42.8936C112 44.354 112 45.8145 112 47.3191C112.453 47.3016 112.906 47.284 113.372 47.266C113.513 47.2617 113.653 47.2575 113.797 47.2531C114.668 47.2103 115.319 47.0648 116.085 46.6383C116.437 46.1677 116.468 45.7698 116.457 45.1915C116.456 45.0633 116.455 44.9352 116.454 44.8032C116.426 44.4324 116.357 44.1018 116.255 43.7447C116.636 44.0449 116.757 44.191 116.828 44.6789C116.793 46.6043 116.793 46.6043 116.426 47.1489C115.085 47.8168 113.46 47.7587 112 47.6596C111.83 47.4894 111.83 47.4894 111.81 47.0482C111.811 46.8565 111.812 46.6649 111.813 46.4674C111.814 46.2606 111.814 46.0538 111.815 45.8408C111.816 45.623 111.818 45.4052 111.819 45.1808C111.82 44.9624 111.821 44.744 111.821 44.5189C111.823 43.9772 111.826 43.4354 111.83 42.8936Z" fill="#053A0D"/>
<path d="M63.8298 30.4681C63.886 30.4681 63.9421 30.4681 64 30.4681C64.0042 31.2649 64.0073 32.0617 64.0094 32.8586C64.0102 33.1299 64.0114 33.4011 64.0128 33.6724C64.0149 34.0615 64.0159 34.4506 64.0166 34.8398C64.0175 34.9617 64.0184 35.0837 64.0193 35.2094C64.0193 35.5014 64.0105 35.7933 64 36.0851C63.6436 36.4415 62.8951 36.2868 62.4043 36.2872C62.2713 36.2893 62.1383 36.2914 62.0013 36.2936C61.3317 36.2953 60.9947 36.2944 60.4255 35.9149C61.4928 35.9149 62.56 35.9149 63.6596 35.9149C63.6576 35.5502 63.6556 35.1856 63.6536 34.8098C63.6523 34.4572 63.6512 34.1046 63.6502 33.7519C63.6494 33.5066 63.6482 33.2612 63.6467 33.0159C63.6447 32.6635 63.6437 32.3112 63.643 31.9588C63.6416 31.6406 63.6416 31.6406 63.6403 31.3159C63.6596 30.8085 63.6596 30.8085 63.8298 30.4681Z" fill="#ECF0EB"/>
<path d="M125.106 23.6596C127.072 23.6596 129.038 23.6596 131.064 23.6596C131.008 23.7719 130.951 23.8843 130.894 24C129.096 24 127.299 24 125.447 24C125.447 24.674 125.447 25.3481 125.447 26.0426C125.278 26.1268 125.278 26.1268 125.106 26.2128C125.106 25.3702 125.106 24.5277 125.106 23.6596Z" fill="#FDFEFC"/>
<path d="M30.1277 35.4043C30.1277 35.5728 30.1277 35.7413 30.1277 35.9149C29.9575 36.0851 29.7872 36.2553 29.617 36.4255C29.5644 36.5695 29.5117 36.7134 29.4575 36.8617C29.3978 36.9986 29.3381 37.1355 29.2766 37.2766C29.1682 37.3146 29.0598 37.3525 28.9481 37.3916C28.4783 37.6921 28.4284 38.0228 28.3022 38.5485C28.2762 38.6694 28.2502 38.7903 28.2234 38.9149C28.1954 39.0318 28.1675 39.1488 28.1386 39.2693C27.9517 40.0761 27.8362 40.8793 27.7447 41.7021C28.5872 41.6179 28.5872 41.6179 29.4468 41.5319C28.921 41.8824 28.8154 41.913 28.2234 41.8936C28.0093 41.8866 27.7951 41.8796 27.5745 41.8723C27.4228 39.5942 27.8822 37.9949 29.3364 36.2281C29.5916 35.9432 29.8536 35.6709 30.1277 35.4043Z" fill="#093C0F"/>
<path d="M134.128 43.9149C134.576 44.3636 134.651 44.7765 134.83 45.383C134.89 45.5853 134.95 45.7876 135.012 45.996C135.057 46.1518 135.102 46.3076 135.149 46.4681C134.643 46.4119 134.138 46.3557 133.617 46.2979C133.596 46.4348 133.575 46.5717 133.553 46.7128C133.501 46.9287 133.501 46.9287 133.447 47.1489C133.334 47.2051 133.222 47.2613 133.106 47.3191C133.409 46.1701 133.737 45.0372 134.128 43.9149Z" fill="#E8EFE8"/>
<path d="M27.0638 30.1277C27.4096 30.6463 27.4462 30.7406 27.4375 31.3211C27.4364 31.4501 27.4353 31.579 27.4342 31.7118C27.4313 31.8455 27.4285 31.9792 27.4255 32.117C27.424 32.2527 27.4225 32.3884 27.4209 32.5283C27.4169 32.8628 27.4108 33.1974 27.4043 33.5319C27.4604 33.4196 27.5166 33.3072 27.5745 33.1915C27.9677 33.1915 28.3609 33.1915 28.766 33.1915C28.7098 33.36 28.6536 33.5285 28.5958 33.7021C28.2026 33.7021 27.8094 33.7021 27.4043 33.7021C27.3481 35.3872 27.2919 37.0723 27.2341 38.8085C27.1779 38.8085 27.1217 38.8085 27.0638 38.8085C27.0638 35.9438 27.0638 33.0792 27.0638 30.1277Z" fill="#F2F0EA"/>
<path d="M85.7873 10.5532C87.0792 10.5532 88.3711 10.5532 89.7022 10.5532C89.5361 11.7157 89.4843 11.9285 88.8511 12.766C88.456 12.1734 88.5107 11.9238 88.5107 11.234C88.0242 10.7476 87.6346 10.8242 86.9575 10.7872C86.6303 10.7681 86.6303 10.7681 86.2966 10.7487C86.0445 10.7362 86.0445 10.7362 85.7873 10.7234C85.7873 10.6672 85.7873 10.6111 85.7873 10.5532Z" fill="#E4EAE1"/>
<path d="M122.723 0.680851C122.836 0.680851 122.948 0.680851 123.064 0.680851C123.064 1.57957 123.064 2.4783 123.064 3.40426C123.176 3.46043 123.289 3.5166 123.404 3.57447C123.213 3.829 123.213 3.829 122.894 4.08511C122.429 4.12745 122.429 4.12745 121.876 4.09774C121.678 4.08841 121.48 4.07909 121.276 4.06948C121.069 4.05708 120.862 4.04469 120.649 4.03191C120.44 4.02149 120.231 4.01107 120.016 4.00033C119.5 3.97422 118.984 3.94564 118.468 3.91489C118.468 3.85872 118.468 3.80255 118.468 3.74468C119.872 3.74468 121.277 3.74468 122.723 3.74468C122.723 2.73362 122.723 1.72255 122.723 0.680851Z" fill="#EEF5EF"/>
<path d="M112 50.0426C112.056 50.0426 112.112 50.0426 112.17 50.0426C112.199 50.8151 112.226 51.5877 112.252 52.3603C112.261 52.6234 112.271 52.8864 112.281 53.1494C112.294 53.5267 112.307 53.9039 112.32 54.2813C112.324 54.3995 112.329 54.5178 112.334 54.6396C112.343 54.9227 112.342 55.2061 112.34 55.4894C111.994 55.8357 111.304 55.6911 110.83 55.6915C110.643 55.6946 110.643 55.6946 110.451 55.6978C109.798 55.6996 109.492 55.6898 108.936 55.3192C109.947 55.3192 110.958 55.3192 112 55.3192C112 53.5779 112 51.8366 112 50.0426Z" fill="#D1DED2"/>
<path d="M34.6064 16.3298C34.9171 16.3351 34.9171 16.3351 35.234 16.3404C35.2192 16.6455 35.2008 16.9505 35.1809 17.2553C35.171 17.4251 35.1611 17.595 35.1509 17.7699C35.1222 17.9161 35.0934 18.0622 35.0638 18.2128C34.8953 18.3251 34.7268 18.4374 34.5532 18.5532C34.5319 17.4255 34.5319 17.4255 34.7234 16.8511C33.7588 16.7984 33.0651 16.9089 32.1669 17.2666C31.8298 17.3617 31.8298 17.3617 31.3192 17.1915C31.5847 17.0806 31.8508 16.9709 32.117 16.8617C32.2651 16.8005 32.4132 16.7393 32.5658 16.6762C33.251 16.4271 33.8788 16.3175 34.6064 16.3298Z" fill="#0F5121"/>
<path d="M1.70215 17.5319C1.91918 18.183 1.77676 18.4225 1.55321 19.0638C1.21868 20.0916 1.06448 21.0504 1.0213 22.1277C0.965127 22.1277 0.908957 22.1277 0.851085 22.1277C0.794915 22.4647 0.738744 22.8017 0.680872 23.1489C0.568532 23.1489 0.456191 23.1489 0.340446 23.1489C0.398053 21.9776 0.628257 20.896 0.925553 19.766C0.962565 19.6243 0.999578 19.4826 1.03771 19.3366C1.21072 18.6956 1.38987 18.1207 1.70215 17.5319Z" fill="#155324"/>
<path d="M112 42.8936C112.73 42.8936 113.46 42.8936 114.213 42.8936C114.213 42.9498 114.213 43.006 114.213 43.0638C113.454 43.1481 113.454 43.1481 112.681 43.234C112.625 44.2451 112.569 45.2562 112.511 46.2979C112.454 46.2979 112.398 46.2979 112.34 46.2979C112.284 46.6349 112.228 46.9719 112.17 47.3191C112.114 47.3191 112.058 47.3191 112 47.3191C112 45.8587 112 44.3983 112 42.8936Z" fill="#C3D5C4"/>
<path d="M35.0638 33.8723C35.0445 34.2625 35.0228 34.6526 35 35.0426C34.9882 35.2598 34.9763 35.477 34.9641 35.7008C34.8936 36.2553 34.8936 36.2553 34.5532 36.5957C34.6094 35.8655 34.6655 35.1353 34.7234 34.383C33.3753 34.4672 33.3753 34.4672 32 34.5532C32.8103 33.7429 33.992 33.8286 35.0638 33.8723Z" fill="#0A4C19"/>
<path d="M114.383 29.9574C114.72 29.9529 115.057 29.9496 115.394 29.9468C115.581 29.9448 115.769 29.9429 115.962 29.9408C116.426 29.9574 116.426 29.9574 116.596 30.1277C116.656 31.035 116.679 31.6086 116.085 32.3404C115.758 32.6724 115.449 32.9184 115.064 33.1915C114.895 33.1353 114.727 33.0792 114.553 33.0213C114.708 32.9124 114.862 32.8036 115.021 32.6915C115.689 32.141 115.985 31.4471 116.255 30.6383C116.255 30.526 116.255 30.4136 116.255 30.2979C115.637 30.2417 115.02 30.1855 114.383 30.1277C114.383 30.0715 114.383 30.0153 114.383 29.9574Z" fill="#0A501D"/>
<path d="M116.596 54.8085C117.775 54.8085 118.955 54.8085 120.17 54.8085C120.226 54.977 120.283 55.1455 120.34 55.3192C119.161 55.3192 117.981 55.3192 116.766 55.3192C116.71 55.1506 116.654 54.9821 116.596 54.8085Z" fill="#064E19"/>
<path d="M17.3617 25.0213C17.5864 25.0774 17.8111 25.1336 18.0426 25.1915C17.8741 25.1915 17.7056 25.1915 17.5319 25.1915C17.5513 25.5001 17.573 25.8086 17.5958 26.117C17.6076 26.2888 17.6195 26.4606 17.6317 26.6376C17.6549 26.7783 17.6782 26.9189 17.7022 27.0638C17.8145 27.12 17.9268 27.1762 18.0426 27.234C17.9864 27.4587 17.9302 27.6834 17.8724 27.9149C17.9847 27.9149 18.097 27.9149 18.2128 27.9149C18.3251 28.3081 18.4375 28.7013 18.5532 29.1064C18.0426 28.9362 18.0426 28.9362 17.887 28.6576C17.4597 27.425 17.3357 26.3217 17.3617 25.0213Z" fill="#074716"/>
<path d="M99.9149 25.8723C99.9711 25.8723 100.027 25.8723 100.085 25.8723C100.083 25.9753 100.082 26.0782 100.08 26.1843C100.073 26.6547 100.068 27.1252 100.064 27.5957C100.061 27.7577 100.058 27.9196 100.055 28.0864C100.049 28.9508 100.079 29.6587 100.426 30.4681C99.9715 30.0443 99.6498 29.6793 99.4043 29.1064C99.5728 28.8536 99.5728 28.8536 99.7447 28.5957C99.7959 28.1269 99.8314 27.6721 99.8511 27.2021C99.8577 27.0745 99.8642 26.9469 99.871 26.8155C99.887 26.5012 99.9012 26.1868 99.9149 25.8723Z" fill="#F1F3ED"/>
<path d="M105.192 27.0638C105.304 27.0638 105.416 27.0638 105.532 27.0638C105.532 27.9064 105.532 28.7489 105.532 29.617C105.021 29.2766 105.021 29.2766 104.926 28.8404C104.901 28.7035 104.876 28.5666 104.851 28.4255C104.739 28.3694 104.626 28.3132 104.511 28.2553C104.735 27.8621 104.96 27.4689 105.192 27.0638Z" fill="#E1E9DE"/>
<path d="M24.6809 22.6383C24.737 22.6383 24.7932 22.6383 24.8511 22.6383C24.8511 23.2562 24.8511 23.874 24.8511 24.5106C23.6875 24.5439 23.6875 24.5439 23.3192 24.5106C23.2068 24.3983 23.0945 24.286 22.9787 24.1702C23.4281 24.0579 23.8775 23.9455 24.3404 23.8298C24.4528 23.4366 24.5651 23.0434 24.6809 22.6383Z" fill="#0C4E1D"/>
<path d="M75.7447 54.4681C75.8009 54.6366 75.857 54.8051 75.9149 54.9787C76.8136 54.9787 77.7124 54.9787 78.6383 54.9787C78.6383 55.0911 78.6383 55.2034 78.6383 55.3191C77.6273 55.3191 76.6162 55.3191 75.5745 55.3191C75.6307 55.0383 75.6868 54.7574 75.7447 54.4681Z" fill="#07501A"/>
<path d="M127.66 53.2766C127.873 53.9177 127.723 54.191 127.489 54.8085C127.993 55.0606 128.483 55.0388 129.043 55.0745C129.261 55.0887 129.479 55.103 129.703 55.1177C129.872 55.128 130.04 55.1383 130.213 55.1489C130.213 55.2051 130.213 55.2613 130.213 55.3191C129.146 55.3191 128.078 55.3191 126.979 55.3191C127.468 53.6596 127.468 53.6596 127.66 53.2766Z" fill="#0B4E1D"/>
<path d="M83.4043 32.6809C83.5166 32.7932 83.6289 32.9055 83.7447 33.0213C82.784 33.4367 81.8762 33.3945 80.8511 33.3617C80.9072 33.1932 80.9634 33.0247 81.0213 32.8511C81.2365 32.854 81.2365 32.854 81.4561 32.857C81.6426 32.8586 81.8291 32.8601 82.0213 32.8617C82.2997 32.8647 82.2997 32.8647 82.5838 32.8677C83.0556 32.8847 83.0556 32.8847 83.4043 32.6809Z" fill="#EDF2EB"/>
<path d="M25.1915 38.6383C25.2477 38.6383 25.3038 38.6383 25.3617 38.6383C25.3617 39.874 25.3617 41.1098 25.3617 42.383C25.3055 42.383 25.2494 42.383 25.1915 42.383C25.1812 42.2228 25.1709 42.0626 25.1602 41.8976C25.1389 41.5797 25.1389 41.5797 25.117 41.2553C25.1032 41.046 25.0894 40.8367 25.0751 40.621C25.0331 40.0058 25.0331 40.0058 24.9089 39.4322C24.8803 39.2077 24.8803 39.2077 24.8511 38.9787C24.9634 38.8664 25.0758 38.754 25.1915 38.6383Z" fill="#F4F1EE"/>
<path d="M2.72343 37.617C2.79715 37.7294 2.87087 37.8417 2.94683 37.9574C3.08901 38.126 3.08901 38.126 3.23407 38.2979C3.40258 38.2979 3.57109 38.2979 3.7447 38.2979C3.85704 38.9157 3.96938 39.5336 4.08513 40.1702C3.64979 39.7349 3.40891 39.4195 3.11704 38.8936C3.04266 38.762 2.96828 38.6303 2.89164 38.4947C2.72343 38.1277 2.72343 38.1277 2.72343 37.617Z" fill="#145122"/>
<path d="M17.5319 17.3617C17.7004 17.3617 17.8689 17.3617 18.0426 17.3617C18.0426 17.5302 18.0426 17.6987 18.0426 17.8723C18.2111 17.8723 18.3796 17.8723 18.5532 17.8723C18.497 18.097 18.4409 18.3217 18.383 18.5532C18.2145 18.5532 18.046 18.5532 17.8724 18.5532C17.8162 18.7779 17.76 19.0026 17.7021 19.234C17.4837 18.5788 17.5206 18.0515 17.5319 17.3617Z" fill="#075420"/>
<path d="M30.1277 35.4043C30.1277 35.5728 30.1277 35.7413 30.1277 35.9149C29.9575 36.0851 29.7873 36.2553 29.617 36.4255C29.5609 36.5695 29.5047 36.7134 29.4468 36.8617C29.2766 37.2766 29.2766 37.2766 28.766 37.617C28.7098 37.4485 28.6536 37.28 28.5958 37.1064C29.1013 36.5447 29.6068 35.983 30.1277 35.4043Z" fill="#0A4B1B"/>
<path d="M81.5319 6.29787C81.7535 6.96247 81.6379 7.52419 81.5426 8.20213C81.5256 8.32972 81.5086 8.45731 81.491 8.58877C81.449 8.90329 81.4055 9.21762 81.3617 9.53192C81.3055 9.53192 81.2494 9.53192 81.1915 9.53192C81.149 9.12066 81.1106 8.70969 81.0745 8.29787C81.0621 8.1818 81.0497 8.06573 81.0369 7.94615C80.9904 7.38202 80.9794 7.04905 81.2733 6.55585C81.3586 6.47072 81.444 6.38559 81.5319 6.29787Z" fill="#044612"/>
<path d="M45.2766 38.4681C45.3889 38.5243 45.5013 38.5804 45.617 38.6383C45.4485 38.8911 45.4485 38.8911 45.2766 39.1489C45.1572 39.4873 45.0428 39.8276 44.9362 40.1702C44.6553 40.2264 44.3745 40.2826 44.0851 40.3404C44.4783 39.7226 44.8715 39.1047 45.2766 38.4681Z" fill="#0E4E1E"/>
<path d="M93.9575 27.0638C94.126 27.0638 94.2945 27.0638 94.4681 27.0638C94.5804 27.2885 94.6928 27.5132 94.8085 27.7447C94.6962 27.857 94.5838 27.9694 94.4681 28.0851C94.4119 28.0851 94.3558 28.0851 94.2979 28.0851C94.2417 28.366 94.1855 28.6468 94.1277 28.9362C94.0715 28.9362 94.0153 28.9362 93.9575 28.9362C93.9575 28.3183 93.9575 27.7004 93.9575 27.0638Z" fill="#F0F2EC"/>
<path d="M109.106 21.2766C109.219 21.3328 109.331 21.3889 109.447 21.4468C108.95 21.9437 108.545 22.323 107.915 22.6383C107.685 22.8044 107.457 22.9737 107.234 23.1489C107.467 22.6126 107.72 22.2964 108.17 21.9255C108.274 21.8389 108.377 21.7522 108.484 21.6629C108.766 21.4468 108.766 21.4468 109.106 21.2766Z" fill="#0A4013"/>
<path d="M17.3617 17.8723C17.4179 17.8723 17.4741 17.8723 17.5319 17.8723C17.7566 18.7149 17.9813 19.5574 18.2128 20.4255C17.7021 20.2553 17.7021 20.2553 17.5013 19.9601C17.3381 19.5092 17.3279 19.159 17.3404 18.6808C17.345 18.4531 17.345 18.4531 17.3498 18.2207C17.3537 18.1058 17.3576 17.9908 17.3617 17.8723Z" fill="#E4EDE6"/>
<path d="M134.128 43.9149C134.468 44.2553 134.468 44.2553 134.476 44.6117C134.459 44.7469 134.443 44.882 134.426 45.0213C134.411 45.1564 134.396 45.2916 134.38 45.4308C134.298 45.7872 134.298 45.7872 133.957 46.1277C133.718 45.6485 133.844 45.3499 133.947 44.8298C133.98 44.6591 134.013 44.4884 134.047 44.3125C134.074 44.1813 134.1 44.0501 134.128 43.9149Z" fill="#F4F7F2"/>
<path d="M144.511 34.0426C144.679 34.2111 144.848 34.3796 145.021 34.5532C144.909 34.5532 144.797 34.5532 144.681 34.5532C144.741 34.6831 144.8 34.813 144.862 34.9468C145.021 35.4043 145.021 35.4043 144.851 35.9149C144.489 35.4575 144.489 35.4575 144.17 34.8936C144.298 34.4043 144.298 34.4043 144.511 34.0426Z" fill="#F0F3EF"/>
<path d="M30.6383 32.6809C30.6945 32.8494 30.7507 33.0179 30.8085 33.1915C30.64 33.2477 30.4715 33.3038 30.2979 33.3617C30.2417 33.474 30.1855 33.5864 30.1277 33.7021C29.4681 33.4043 29.4681 33.4043 29.2766 33.0213C30.2553 32.6809 30.2553 32.6809 30.6383 32.6809Z" fill="#F0F3EE"/>
<path d="M4.76598 18.5532C5.20289 19.2086 5.07796 19.504 4.93619 20.2553C4.71151 20.3115 4.48683 20.3677 4.25534 20.4255C4.42385 19.8077 4.59236 19.1898 4.76598 18.5532Z" fill="#EAF0EA"/>
<path d="M92.2553 54.1277C92.3677 54.1838 92.48 54.24 92.5957 54.2979C92.3853 54.4501 92.172 54.5983 91.9574 54.7447C91.7797 54.8691 91.7797 54.8691 91.5984 54.996C91.234 55.1489 91.234 55.1489 90.8484 55.004C90.751 54.9395 90.6536 54.875 90.5532 54.8085C90.6094 54.6962 90.6655 54.5838 90.7234 54.4681C90.9604 54.4786 90.9604 54.4786 91.2021 54.4894C91.7716 54.5143 91.7716 54.5143 92.2553 54.1277Z" fill="#0F5524"/>
<path d="M115.915 44.0851C116.083 44.0851 116.252 44.0851 116.426 44.0851C116.63 44.4945 116.613 44.7574 116.606 45.2128C116.605 45.3519 116.603 45.491 116.602 45.6343C116.6 45.7409 116.598 45.8476 116.596 45.9574C116.06 45.3747 115.99 44.8608 115.915 44.0851Z" fill="#EAF2EB"/>
<path d="M106.383 39.1489C106.723 39.4894 106.723 39.4894 106.723 39.8298C105.6 39.8298 104.477 39.8298 103.319 39.8298C103.319 39.7736 103.319 39.7174 103.319 39.6596C104.751 39.5753 104.751 39.5753 106.213 39.4894C106.269 39.377 106.325 39.2647 106.383 39.1489Z" fill="#F5F2EC"/>
<path d="M79.149 29.4468C79.2051 29.4468 79.2613 29.4468 79.3192 29.4468C79.3753 30.177 79.4315 30.9072 79.4894 31.6596C79.3209 31.7438 79.3209 31.7438 79.149 31.8298C78.8855 31.0393 78.8943 30.2425 79.149 29.4468Z" fill="#EDF2ED"/>
<path d="M88.8511 5.44681C88.9634 5.44681 89.0758 5.44681 89.1915 5.44681C89.3038 5.55915 89.4162 5.67149 89.5319 5.78723C90.0568 5.81563 90.0568 5.81563 90.5532 5.78723C90.3847 6.04 90.3847 6.04 90.2128 6.29787C89.6809 6.32979 89.6809 6.32979 89.1915 6.29787C89.0792 6.01702 88.9668 5.73617 88.8511 5.44681Z" fill="#EAF0E9"/>
<path d="M140.255 51.5745C140.596 51.7447 140.936 51.9149 141.277 52.0851C141.164 52.4221 141.052 52.7592 140.936 53.1064C140.479 52.6493 140.415 52.1913 140.255 51.5745Z" fill="#F0F3EF"/>
<path d="M143.149 29.2766C143.093 29.5574 143.037 29.8383 142.979 30.1277C142.529 30.1838 142.08 30.24 141.617 30.2979C141.617 30.1855 141.617 30.0732 141.617 29.9574C142.766 29.2766 142.766 29.2766 143.149 29.2766Z" fill="#E7F0E7"/>
<path d="M64.8511 48.5106C65.1596 48.5319 65.1596 48.5319 65.5319 48.6809C65.8298 49.2021 65.8298 49.2021 66.0426 49.7021C65.8179 49.7583 65.5932 49.8145 65.3617 49.8723C65.3617 49.6477 65.3617 49.423 65.3617 49.1915C65.1932 49.1353 65.0247 49.0792 64.8511 49.0213C64.8511 48.8528 64.8511 48.6843 64.8511 48.5106Z" fill="#EDF2EB"/>
<path d="M9.70215 42.2128C9.983 42.4936 10.2639 42.7745 10.5532 43.0638C10.0426 43.4043 10.0426 43.4043 9.36172 43.4043C9.36172 43.2919 9.36172 43.1796 9.36172 43.0638C9.47407 43.0638 9.58641 43.0638 9.70215 43.0638C9.70215 42.783 9.70215 42.5021 9.70215 42.2128Z" fill="#065622"/>
<path d="M17.6277 33.6915C17.8207 33.695 18.0138 33.6985 18.2128 33.7021C18.2128 33.7583 18.2128 33.8145 18.2128 33.8723C17.9319 33.8723 17.6511 33.8723 17.3617 33.8723C17.3617 34.2094 17.3617 34.5464 17.3617 34.8936C17.1932 34.8374 17.0247 34.7813 16.8511 34.7234C16.8438 34.4398 16.8441 34.1559 16.8511 33.8723C17.0213 33.7021 17.0213 33.7021 17.6277 33.6915Z" fill="#ECF3EB"/>
<path d="M34.7234 18.8936C34.8936 19.234 35.0638 19.5745 35.234 19.9149C35.1779 20.0272 35.1217 20.1396 35.0638 20.2553C34.8953 20.3115 34.7268 20.3677 34.5532 20.4255C34.497 20.5379 34.4409 20.6502 34.383 20.766C34.2706 20.7098 34.1583 20.6536 34.0426 20.5957C34.2672 20.034 34.4919 19.4723 34.7234 18.8936Z" fill="#E5EDE4"/>
<path d="M8.1702 7.31915C8.33871 7.43149 8.50722 7.54383 8.68084 7.65958C8.51233 7.71575 8.34382 7.77192 8.1702 7.82979C8.11403 7.9983 8.05786 8.16681 7.99999 8.34043C7.83148 8.34043 7.66297 8.34043 7.48935 8.34043C7.43318 8.50894 7.37701 8.67745 7.31914 8.85107C7.2068 8.7949 7.09446 8.73873 6.97871 8.68085C7.37191 8.23149 7.7651 7.78213 8.1702 7.31915Z" fill="#1E5C2E"/>
<path d="M69.9574 0.510637C70.0136 0.510637 70.0698 0.510637 70.1277 0.510637C70.138 0.625611 70.1483 0.740584 70.1589 0.859042C70.1732 1.01088 70.1874 1.16271 70.2021 1.31915C70.2159 1.46923 70.2298 1.61931 70.244 1.77394C70.2915 2.1606 70.3639 2.5189 70.4681 2.89362C70.3557 2.89362 70.2434 2.89362 70.1277 2.89362C70.0715 3.00596 70.0153 3.1183 69.9574 3.23404C69.9574 2.33532 69.9574 1.43659 69.9574 0.510637Z" fill="#FDFDFC"/>
<path d="M48.3404 30.8085C48.5746 31.028 48.8013 31.2556 49.0213 31.4894C49.0213 31.6017 49.0213 31.714 49.0213 31.8298C48.7404 31.9421 48.4596 32.0545 48.1702 32.1702C48.2264 31.7209 48.2826 31.2715 48.3404 30.8085Z" fill="#07531E"/>
<path d="M30.6383 26.2128C30.6945 26.3813 30.7507 26.5498 30.8085 26.7234C30.619 26.834 30.619 26.834 30.4255 26.9468C30.0224 27.1942 29.6495 27.4547 29.2766 27.7447C29.5461 27.0172 30.0435 26.6782 30.6383 26.2128Z" fill="#094112"/>
<path d="M112.34 50.0426C112.846 50.0426 113.351 50.0426 113.872 50.0426C113.929 50.2672 113.985 50.4919 114.043 50.7234C113.481 50.5549 112.919 50.3864 112.34 50.2128C112.34 50.1566 112.34 50.1004 112.34 50.0426Z" fill="#ECF5EC"/>
<path d="M116.426 46.4681C116.482 46.6366 116.538 46.8051 116.596 46.9787C115.999 47.2517 115.55 47.3567 114.894 47.3191C115.39 46.9885 115.891 46.7295 116.426 46.4681Z" fill="#105623"/>
<path d="M17.3617 35.4043C17.4179 35.4043 17.4741 35.4043 17.5319 35.4043C17.6443 35.966 17.7566 36.5277 17.8724 37.1064C17.76 37.1064 17.6477 37.1064 17.5319 37.1064C17.5319 36.994 17.5319 36.8817 17.5319 36.766C17.4196 36.766 17.3073 36.766 17.1915 36.766C17.2477 36.3166 17.3039 35.8672 17.3617 35.4043Z" fill="#E7F0E8"/>
<path d="M1.02129 33.1915C1.29695 33.6293 1.36922 33.8173 1.29788 34.3404C1.26278 34.4668 1.22767 34.5932 1.1915 34.7234C0.966821 34.6111 0.74214 34.4987 0.510651 34.383C0.510651 34.2706 0.510651 34.1583 0.510651 34.0426C0.679161 34.0426 0.847672 34.0426 1.02129 34.0426C1.02129 33.7617 1.02129 33.4809 1.02129 33.1915Z" fill="#E6EDE3"/>
<path d="M11.2341 4.42553C11.4026 4.4817 11.5711 4.53787 11.7447 4.59574C11.2392 4.93276 10.7336 5.26978 10.2128 5.61702C10.5287 4.98525 10.648 4.76293 11.2341 4.42553Z" fill="#E5EFE9"/>
<path d="M88.3404 52.0851C88.7617 52.2536 88.7617 52.2536 89.1915 52.4255C89.1915 52.4817 89.1915 52.5379 89.1915 52.5957C88.6298 52.5957 88.0681 52.5957 87.4894 52.5957C87.714 52.4834 87.9387 52.3711 88.1702 52.2553C88.2264 52.1991 88.2826 52.143 88.3404 52.0851Z" fill="#E4EFE6"/>
<path d="M39.3192 48.8511C39.4315 48.9072 39.5438 48.9634 39.6596 49.0213C39.3511 49.3617 39.3511 49.3617 38.9787 49.7021C38.8102 49.7021 38.6417 49.7021 38.4681 49.7021C38.4681 49.5898 38.4681 49.4774 38.4681 49.3617C38.8723 49.0745 38.8723 49.0745 39.3192 48.8511Z" fill="#ECF1ED"/>
<path d="M46.4681 36.2553C46.5804 36.2553 46.6928 36.2553 46.8085 36.2553C46.8085 36.5923 46.8085 36.9294 46.8085 37.2766C46.5277 37.3328 46.2468 37.3889 45.9575 37.4468C46.126 37.0536 46.2945 36.6604 46.4681 36.2553Z" fill="#1B592B"/>
<path d="M28.5957 36.0851C28.7643 36.1413 28.9328 36.1974 29.1064 36.2553C29.0104 36.8118 28.8511 37.0767 28.4255 37.4468C28.4817 36.9974 28.5379 36.5481 28.5957 36.0851Z" fill="#EFF5EF"/>
<path d="M139.574 23.8298C139.979 23.8723 139.979 23.8723 140.426 24C140.649 24.3511 140.649 24.3511 140.766 24.6809C140.597 24.7651 140.597 24.7651 140.426 24.8511C140.145 24.514 139.864 24.177 139.574 23.8298Z" fill="#EBF2EC"/>
<path d="M4.08512 20.766C4.19746 20.8221 4.3098 20.8783 4.42555 20.9362C4.42555 21.3294 4.42555 21.7226 4.42555 22.1277C4.25704 22.1277 4.08853 22.1277 3.91491 22.1277C3.97108 21.6783 4.02725 21.2289 4.08512 20.766Z" fill="#EDF2EB"/>
</g>
<defs>
<clipPath id="clip0_286_284">
<rect width="145.021" height="56" fill="white"/>
</clipPath>
</defs>
</svg>
